<?xml version="1.0" encoding="UTF-8"?>
<svg id="Camada_1" xmlns="http://www.w3.org/2000/svg" version="1.1" viewBox="0 0 295 295">
  <!-- Generator: Adobe Illustrator 29.5.1, SVG Export Plug-In . SVG Version: 2.1.0 Build 141)  -->
  <defs>
    <style>
      .st0 {
        fill: #e7b100;
      }

      .st1 {
        fill: #002d4d;
      }
    </style>
  </defs>
  <path class="st0" d="M238.893943,55.496422v91.8993274c-.0972652,50.5379867-41.1983756,91.6060665-91.7363623,91.6060665s-91.638736-41.0680797-91.7363623-91.6060665V55.496422c12.6589046,0,22.9422578,10.2507997,22.9422578,22.9422485v68.9570789c.0975744,37.8790192,30.9150235,68.6635565,68.8265262,68.6635565,37.9120593,0,68.7290089-30.7521156,68.826902-68.6635565v-68.9245334h-22.9425099v68.6639228c-.0324217,25.3827786-20.6967622,45.9822756-46.0471191,45.9822756s-45.7216031-20.3388863-46.0469954-45.4292509c-.0650861-6.1175105,4.4908058-11.6171528,10.6087444-12.0404905,6.7361112-.4881765,12.3012201,4.8163218,12.3012201,11.4226224,0,12.7562328,10.3808028,23.1370309,23.1370309,23.1370309,12.7568512,0,23.0728153-10.3153362,23.105237-23.0721874v-68.6964682c0-12.6589034,10.2504927-22.9422485,22.9418821-22.9422485h45.884392-.0648435Z"/>
  <path class="st1" d="M111.7157146,89.990975c9.543479,0,17.2801406-7.7364712,17.2801406-17.2798885s-7.7366615-17.2798885-17.2801406-17.2798885c-9.5434172,0-17.2798885,7.7364718-17.2798885,17.2798885s7.7364712,17.2798885,17.2798885,17.2798885Z"/>
</svg>