<svg width="414" height="97" viewBox="0 0 414 97" fill="none" xmlns="http://www.w3.org/2000/svg">
<path d="M109.368 9.55131H103.527V0.0615845H128.279V9.55131H122.437V32.3316C122.437 34.6671 122.949 36.7126 123.75 38.0992C125.137 40.4347 127.984 41.8213 131.563 41.8213C134.921 41.8213 137.552 40.6511 139.155 38.1729C140.104 36.6388 140.541 34.7409 140.541 32.3316V9.55131H134.7V0.0615845H159.452V9.55131H153.611V32.3316C153.611 37.5141 152.003 42.5539 149.303 45.9122C145.286 50.8783 138.353 53.1401 131.489 53.1401C124.04 53.1401 117.545 50.5096 113.749 46.1286C110.681 42.6228 109.368 37.8042 109.368 32.3316V9.55131Z" fill="#002E50"/>
<path d="M162.963 43.1345H167.708V25.3942C167.708 24.3714 167.123 23.7863 166.1 23.7863H162.594V14.6604H174.567C177.999 14.6604 179.749 16.342 179.749 18.8939V20.1379C179.749 20.5018 179.676 21.0131 179.676 21.0131H179.823C179.823 21.0131 183.108 13.7852 192.602 13.7852C199.683 13.7852 205.308 17.291 205.308 27.8772V43.1345H210.052V52.2604H192.676V30.2128C192.676 26.707 191.289 25.2466 188.442 25.2466C182.822 25.2466 180.339 31.088 180.339 36.3442V43.1345H185.084V52.2604H162.963V43.1345Z" fill="#002E50"/>
<path d="M213.917 43.1342H218.662V23.786H213.553V14.6601H231.294V43.1342H236.039V52.2601H213.917V43.1342ZM218.81 0.0616455H231.146V9.91523H218.81V0.0616455Z" fill="#002E50"/>
<path d="M239.54 43.1342H245.233L248.007 9.54646H242.165V0.0616455H262.684L271.446 25.9052C272.542 29.1159 272.906 31.3089 272.906 31.3089H273.054C273.054 31.3089 273.417 29.1159 274.514 25.9052L283.271 0.0616455H303.789V9.55137H297.948L300.721 43.1391H306.415V52.265H282.76V43.1391H287.942L286.703 24.0121C286.556 21.8192 286.993 18.1708 286.993 18.1708H286.703C286.703 18.1708 286.118 21.5291 285.316 23.7171L278.452 42.7753H267.502L260.638 23.7171C259.837 21.5291 259.252 18.1708 259.252 18.1708H258.962C258.962 18.1708 259.399 21.8192 259.252 24.0121L258.013 43.1391H263.195V52.265H239.54V43.1391V43.1342Z" fill="#002E50"/>
<path d="M309.916 43.1342H314.1L328.458 0.0616455H343.351L357.709 43.1391H361.893V52.265H340.062V43.1391H344.694L342.619 35.8374H329.186L327.111 43.1391H331.742V52.265H309.911V43.1391L309.916 43.1342ZM339.777 25.9052L337.077 16.2679C336.202 13.0572 336.055 10.7904 336.055 10.7904H335.765C335.765 10.7904 335.617 13.0522 334.742 16.2679L331.969 25.9052H339.782H339.777Z" fill="#002E50"/>
<path d="M365.394 43.1342H369.283L382.407 25.6102L370.139 9.54646H365.758V0.0616455H387.953V9.55137H383.425L388.391 16.1253C389.413 17.4382 390.072 18.5347 390.072 18.5347H390.22C390.22 18.6084 390.805 17.5119 391.828 16.1253L396.646 9.55137H392.265V0.0616455H413.29V9.55137H409.13L396.356 26.4903L409.194 43.1342H413.148V52.2601H390.952V43.1342H395.904L390.367 35.9063C389.345 34.5934 388.686 33.4232 388.686 33.4232H388.538C388.391 33.4232 387.879 34.5197 386.93 35.9063L381.777 43.1342H386.562V52.2601H365.389V43.1342H365.394Z" fill="#002E50"/>
<path d="M115.204 61.7493C116.537 61.7493 119.428 62.236 119.428 63.9471V65.2993H117.967V64.4339C117.967 63.4604 116.286 63.0965 115.268 63.0965C112.898 63.0965 111.157 64.8371 111.157 67.3497C111.157 69.8622 112.947 71.8389 115.366 71.8389C116.153 71.8389 118.13 71.5537 118.13 70.5359V69.6705H119.59V71.0227C119.59 72.6551 116.812 73.2058 115.273 73.2058C111.944 73.2058 109.545 70.644 109.545 67.4136C109.545 64.1832 112.008 61.7493 115.209 61.7493H115.204Z" fill="#6F6F6E"/>
<path d="M125.313 64.8865C127.575 64.8865 128.75 66.5485 128.75 68.6087C128.75 68.8103 128.701 69.1889 128.701 69.1889H122.894C122.988 70.9442 124.227 71.8883 125.643 71.8883C127.059 71.8883 128.013 70.9934 128.013 70.9934L128.642 72.1095C128.642 72.1095 127.447 73.2109 125.549 73.2109C123.051 73.2109 121.34 71.4064 121.34 69.0512C121.34 66.5239 123.051 64.8915 125.313 64.8915V64.8865ZM127.182 68.2153C127.133 66.8189 126.287 66.0961 125.284 66.0961C124.123 66.0961 123.179 66.8828 122.963 68.2153H127.187H127.182Z" fill="#6F6F6E"/>
<path d="M130.412 71.8387H131.651V66.5972C131.651 66.3612 131.523 66.253 131.307 66.253H130.333V65.0778H132.123C132.817 65.0778 133.126 65.3778 133.126 65.958V66.3661C133.126 66.6168 133.077 66.8234 133.077 66.8234H133.107C133.264 66.4005 134.188 64.891 136.199 64.891C138.019 64.891 138.835 65.9137 138.835 67.9346V71.8436H140.089V73.0187H137.311V68.2788C137.311 67.1626 137.089 66.2825 135.821 66.2825C134.218 66.2825 133.166 67.7428 133.166 69.3261V71.8387H134.419V73.0138H130.402V71.8387H130.412Z" fill="#6F6F6E"/>
<path d="M142.238 66.2529H140.905V65.0778H142.272V62.8947H143.762V65.0778H145.66V66.2529H143.762V69.9751C143.762 71.5928 144.863 71.7943 145.458 71.7943C145.679 71.7943 145.817 71.7796 145.817 71.7796V73.0531C145.817 73.0531 145.596 73.0875 145.266 73.0875C144.263 73.0875 142.238 72.7728 142.238 70.1177V66.2579V66.2529Z" fill="#6F6F6E"/>
<path d="M147.307 71.839H148.502V66.5975C148.502 66.3615 148.374 66.2533 148.158 66.2533H147.169V65.0781H148.959C149.647 65.0781 149.977 65.3584 149.977 66.0025V66.5041C149.977 66.8187 149.947 67.0548 149.947 67.0548H149.977C150.336 65.8944 151.265 64.9798 152.489 64.9798C152.696 64.9798 152.883 65.0093 152.883 65.0093V66.5188C152.883 66.5188 152.696 66.4696 152.445 66.4696C150.749 66.4696 150.026 68.1807 150.026 69.7345V71.839H151.201V73.0141H147.307V71.839Z" fill="#6F6F6E"/>
<path d="M158.247 64.8865C160.617 64.8865 162.535 66.6271 162.535 69.0315C162.535 71.4359 160.617 73.206 158.247 73.206C155.877 73.206 153.959 71.4458 153.959 69.0315C153.959 66.6173 155.877 64.8865 158.247 64.8865ZM158.247 71.8883C159.737 71.8883 160.981 70.6935 160.981 69.0315C160.981 67.3696 159.742 66.2043 158.247 66.2043C156.752 66.2043 155.513 67.3794 155.513 69.0315C155.513 70.6836 156.738 71.8883 158.247 71.8883Z" fill="#6F6F6E"/>
<path d="M169.473 63.1454H168.076V61.9359H172.442V63.1454H171.046V68.8737C171.046 69.5965 171.189 70.2258 171.469 70.6782C171.926 71.401 172.787 71.8091 173.854 71.8091C174.921 71.8091 175.786 71.401 176.238 70.6487C176.504 70.1963 176.661 69.5817 176.661 68.8589V63.1454H175.265V61.9359H179.611V63.1454H178.23V68.8933C178.23 69.9456 177.949 70.9044 177.463 71.5928C176.71 72.6597 175.358 73.2104 173.854 73.2104C172.349 73.2104 170.967 72.6155 170.21 71.5928C169.694 70.8847 169.473 69.9603 169.473 68.8933V63.1454Z" fill="#6F6F6E"/>
<path d="M180.791 71.8387H182.03V66.5972C182.03 66.3612 181.903 66.253 181.686 66.253H180.713V65.0778H182.502C183.196 65.0778 183.505 65.3778 183.505 65.958V66.3661C183.505 66.6168 183.456 66.8234 183.456 66.8234H183.486C183.643 66.4005 184.568 64.891 186.579 64.891C188.398 64.891 189.214 65.9137 189.214 67.9346V71.8436H190.468V73.0187H187.69V68.2788C187.69 67.1626 187.469 66.2825 186.2 66.2825C184.597 66.2825 183.545 67.7428 183.545 69.3261V71.8387H184.799V73.0138H180.781V71.8387H180.791Z" fill="#6F6F6E"/>
<path d="M191.859 71.8386H193.099V66.248H191.781V65.0729H194.623V71.8386H195.877V73.0138H191.859V71.8386ZM193.069 61.9359H194.672V63.4896H193.069V61.9359Z" fill="#6F6F6E"/>
<path d="M196.634 65.0731H200.199V66.2483H199.181L200.862 70.88C200.99 71.2242 201.034 71.6176 201.034 71.6176H201.084C201.084 71.6176 201.133 71.2242 201.256 70.88L202.952 66.2483H201.929V65.0731H205.479V66.2483H204.491L201.915 73.014H200.204L197.647 66.2483H196.644V65.0731H196.634Z" fill="#6F6F6E"/>
<path d="M210.416 64.8865C212.678 64.8865 213.853 66.5485 213.853 68.6087C213.853 68.8103 213.804 69.1889 213.804 69.1889H207.997C208.09 70.9442 209.329 71.8883 210.745 71.8883C212.161 71.8883 213.115 70.9934 213.115 70.9934L213.745 72.1095C213.745 72.1095 212.555 73.2109 210.652 73.2109C208.154 73.2109 206.448 71.4064 206.448 69.0512C206.448 66.5239 208.159 64.8915 210.421 64.8915L210.416 64.8865ZM212.284 68.2153C212.235 66.8189 211.39 66.0961 210.386 66.0961C209.226 66.0961 208.282 66.8828 208.061 68.2153H212.284Z" fill="#6F6F6E"/>
<path d="M215.549 71.839H216.744V66.5975C216.744 66.3615 216.616 66.2533 216.4 66.2533H215.412V65.0781H217.201C217.89 65.0781 218.219 65.3584 218.219 66.0025V66.5041C218.219 66.8187 218.19 67.0548 218.19 67.0548H218.219C218.578 65.8944 219.507 64.9798 220.732 64.9798C220.933 64.9798 221.125 65.0093 221.125 65.0093V66.5188C221.125 66.5188 220.938 66.4696 220.688 66.4696C218.991 66.4696 218.268 68.1807 218.268 69.7345V71.839H219.444V73.0141H215.549V71.839Z" fill="#6F6F6E"/>
<path d="M222.281 70.4616H223.618V70.9779C223.618 71.6515 224.557 71.9662 225.437 71.9662C226.318 71.9662 227.04 71.6073 227.04 70.9435C227.04 70.142 226.16 69.8912 225.064 69.4979C223.889 69.0603 222.586 68.5243 222.586 67.0787C222.586 65.5102 224.139 64.8809 225.521 64.8809C226.637 64.8809 228.27 65.3185 228.27 66.4838V67.4426H226.937V66.9214C226.937 66.4346 226.308 66.1052 225.541 66.1052C224.774 66.1052 224.13 66.4199 224.13 67.064C224.13 67.8163 225.01 68.131 225.968 68.4604C227.193 68.8685 228.589 69.3848 228.589 70.8599C228.589 72.335 227.208 73.2004 225.403 73.2004C223.957 73.2004 222.296 72.5562 222.296 71.3024V70.4567L222.281 70.4616Z" fill="#6F6F6E"/>
<path d="M230.212 71.8386H231.451V66.248H230.133V65.0729H232.975V71.8386H234.229V73.0138H230.212V71.8386ZM231.421 61.9359H233.024V63.4896H231.421V61.9359Z" fill="#6F6F6E"/>
<path d="M236.52 66.2529H235.183V65.0778H236.55V62.8947H238.04V65.0778H239.938V66.2529H238.04V69.9751C238.04 71.5928 239.141 71.7943 239.736 71.7943C239.957 71.7943 240.095 71.7796 240.095 71.7796V73.0531C240.095 73.0531 239.874 73.0875 239.544 73.0875C238.541 73.0875 236.515 72.7728 236.515 70.1177V66.2579L236.52 66.2529Z" fill="#6F6F6E"/>
<path d="M245.956 68.1361H246.457V67.8362C246.457 66.5775 245.734 66.1398 244.761 66.1398C243.507 66.1398 242.484 66.9118 242.484 66.9118L241.87 65.8301C241.87 65.8301 243.03 64.886 244.884 64.886C246.91 64.886 247.977 65.9383 247.977 67.9493V71.4993C247.977 71.7354 248.104 71.8435 248.321 71.8435H249.122V73.0187H247.539C246.831 73.0187 246.551 72.6745 246.551 72.1533V72.0451C246.551 71.7304 246.615 71.5288 246.615 71.5288H246.58C246.58 71.5288 245.892 73.2104 243.959 73.2104C242.642 73.2104 241.324 72.4385 241.324 70.811C241.324 68.3131 244.638 68.1411 245.956 68.1411V68.1361ZM244.294 72.0304C245.646 72.0304 246.477 70.6487 246.477 69.4539V69.1244H246.084C245.361 69.1244 242.868 69.1539 242.868 70.6782C242.868 71.3813 243.384 72.0304 244.294 72.0304ZM245.612 61.9359H247.352L245.405 63.9272H243.979L245.612 61.9359Z" fill="#6F6F6E"/>
<path d="M250.558 71.839H251.753V66.5975C251.753 66.3615 251.625 66.2533 251.409 66.2533H250.42V65.0781H252.21C252.899 65.0781 253.228 65.3584 253.228 66.0025V66.5041C253.228 66.8187 253.199 67.0548 253.199 67.0548H253.228C253.587 65.8944 254.516 64.9798 255.741 64.9798C255.942 64.9798 256.134 65.0093 256.134 65.0093V66.5188C256.134 66.5188 255.947 66.4696 255.696 66.4696C254 66.4696 253.277 68.1807 253.277 69.7345V71.839H254.452V73.0141H250.558V71.839Z" fill="#6F6F6E"/>
<path d="M257.417 71.8386H258.656V66.248H257.339V65.0729H260.181V71.8386H261.434V73.0138H257.417V71.8386ZM258.627 61.9359H260.23V63.4896H258.627V61.9359Z" fill="#6F6F6E"/>
<path d="M267.025 64.8865C269.395 64.8865 271.313 66.6271 271.313 69.0315C271.313 71.4359 269.395 73.206 267.025 73.206C264.655 73.206 262.738 71.4458 262.738 69.0315C262.738 66.6173 264.65 64.8865 267.025 64.8865ZM267.025 71.8883C268.515 71.8883 269.754 70.6935 269.754 69.0315C269.754 67.3696 268.515 66.2043 267.025 66.2043C265.535 66.2043 264.291 67.3794 264.291 69.0315C264.291 70.6836 265.516 71.8883 267.025 71.8883Z" fill="#6F6F6E"/>
<path d="M109.363 87.9725H110.744L111.453 79.3236H110.041V78.114H113.178L116.02 84.865C116.192 85.3223 116.271 85.6665 116.271 85.6665H116.301C116.301 85.6665 116.379 85.3223 116.551 84.865L119.393 78.114H122.535V79.3236H121.124L121.832 87.9725H123.214V89.1968H118.946V87.9725H120.278L119.777 81.3494C119.762 81.0052 119.826 80.4397 119.826 80.4397H119.777C119.777 80.4397 119.649 80.9708 119.526 81.2854L116.984 87.112H115.602L113.06 81.2854C112.933 80.9708 112.81 80.4397 112.81 80.4397H112.76C112.76 80.4397 112.824 81.0052 112.81 81.3494L112.308 87.9725H113.641V89.1968H109.373V87.9725H109.363Z" fill="#6F6F6E"/>
<path d="M129.203 84.3147H129.704V84.0148C129.704 82.7561 128.982 82.3185 128.008 82.3185C126.754 82.3185 125.731 83.0904 125.731 83.0904L125.117 82.0087C125.117 82.0087 126.277 81.0646 128.131 81.0646C130.157 81.0646 131.224 82.1169 131.224 84.1279V87.6779C131.224 87.914 131.351 88.0221 131.568 88.0221H132.369V89.1973H130.786C130.078 89.1973 129.798 88.8531 129.798 88.3319V88.2237C129.798 87.909 129.862 87.7074 129.862 87.7074H129.832C129.832 87.7074 129.139 89.389 127.211 89.389C125.894 89.389 124.576 88.6171 124.576 86.9896C124.576 84.4918 127.89 84.3197 129.208 84.3197L129.203 84.3147ZM127.541 88.209C128.893 88.209 129.724 86.8273 129.724 85.6325V85.3031H129.331C128.608 85.3031 126.115 85.3326 126.115 86.8568C126.115 87.5599 126.631 88.209 127.541 88.209Z" fill="#6F6F6E"/>
<path d="M133.598 88.0215H134.793L136.691 85.1008L134.931 82.4309H133.643V81.2557H135.87L137.281 83.5618C137.424 83.7978 137.547 84.0781 137.547 84.0781H137.576C137.576 84.0781 137.704 83.8126 137.857 83.5618L139.302 81.2557H141.407V82.4309H140.197L138.422 85.0811L140.384 88.0166H141.451V89.1917H139.425L137.822 86.6152C137.665 86.3792 137.542 86.1137 137.542 86.1137H137.512C137.512 86.1137 137.404 86.3645 137.232 86.6349L135.664 89.1917H133.589V88.0166L133.598 88.0215Z" fill="#6F6F6E"/>
<path d="M147.258 87.9725H148.64V79.3236H147.258V78.114H152.421C153.094 78.114 153.773 78.1632 154.319 78.4139C155.464 78.9007 156.202 80.0759 156.202 81.551C156.202 83.1047 155.386 84.3635 154.112 84.8011C153.596 84.9879 153.06 85.0371 152.45 85.0371H150.203V87.9725H151.6V89.1968H147.253V87.9725H147.258ZM152.268 83.7488C152.77 83.7488 153.163 83.6702 153.507 83.5276C154.215 83.2129 154.623 82.5049 154.623 81.551C154.623 80.6561 154.265 79.9972 153.635 79.6678C153.291 79.4809 152.819 79.4023 152.283 79.4023H150.213V83.7488H152.268Z" fill="#6F6F6E"/>
<path d="M158.262 79.2937H156.944V78.1185H159.786V86.8461C159.786 87.5198 159.943 87.977 160.632 87.977C160.883 87.977 161.055 87.9623 161.055 87.9623L161.04 89.221C161.04 89.221 160.725 89.2505 160.366 89.2505C159.235 89.2505 158.262 88.7932 158.262 86.9445V79.2986V79.2937Z" fill="#6F6F6E"/>
<path d="M166.931 84.3147H167.432V84.0148C167.432 82.7561 166.709 82.3185 165.736 82.3185C164.482 82.3185 163.459 83.0904 163.459 83.0904L162.845 82.0087C162.845 82.0087 164.005 81.0646 165.859 81.0646C167.884 81.0646 168.951 82.1169 168.951 84.1279V87.6779C168.951 87.914 169.079 88.0221 169.296 88.0221H170.097V89.1973H168.514C167.806 89.1973 167.526 88.8531 167.526 88.3319V88.2237C167.526 87.909 167.589 87.7074 167.589 87.7074H167.56C167.56 87.7074 166.867 89.389 164.939 89.389C163.621 89.389 162.304 88.6171 162.304 86.9896C162.304 84.4918 165.618 84.3197 166.935 84.3197L166.931 84.3147ZM165.264 88.209C166.616 88.209 167.447 86.8273 167.447 85.6325V85.3031H167.053C166.331 85.3031 163.838 85.3326 163.838 86.8568C163.838 87.5599 164.354 88.209 165.264 88.209Z" fill="#6F6F6E"/>
<path d="M171.498 88.0213H172.737V82.7799C172.737 82.5438 172.61 82.4357 172.393 82.4357H171.42V81.2605H173.209C173.903 81.2605 174.213 81.5604 174.213 82.1406V82.5488C174.213 82.7995 174.163 83.006 174.163 83.006H174.193C174.35 82.5832 175.275 81.0737 177.286 81.0737C179.105 81.0737 179.921 82.0964 179.921 84.1173V88.0262H181.175V89.2014H178.397V84.4615C178.397 83.3453 178.176 82.4652 176.907 82.4652C175.304 82.4652 174.252 83.9255 174.252 85.5088V88.0213H175.506V89.1965H171.489V88.0213H171.498Z" fill="#6F6F6E"/>
<path d="M186.647 81.0646C187.823 81.0646 189.755 81.5022 189.755 82.8692V83.8427H188.403V83.292C188.403 82.6774 187.4 82.3824 186.692 82.3824C185.089 82.3824 183.992 83.5133 183.992 85.2096C183.992 87.0142 185.266 88.0664 186.785 88.0664C188.137 88.0664 189.047 87.2649 189.327 87.0437L189.907 88.1598C189.548 88.4892 188.403 89.3841 186.721 89.3841C184.43 89.3841 182.434 87.796 182.434 85.2391C182.434 82.6823 184.273 81.0646 186.643 81.0646H186.647Z" fill="#6F6F6E"/>
<path d="M191.245 88.0213H192.499V79.2937H191.166V78.1185H194.008V84.3041H195.169L196.757 82.4356H195.719V81.2605H199.328V82.4356H198.276L196.314 84.7269V84.7613C196.314 84.7613 196.58 84.8695 196.895 85.4055L198.247 87.7115C198.404 87.9623 198.532 88.0262 198.94 88.0262H199.441V89.2014H198.247C197.524 89.2014 197.288 89.0735 196.944 88.4638L195.375 85.7792C195.203 85.4989 194.982 85.4645 194.638 85.4645H194.008V88.0213H195.075V89.1964H191.245V88.0213Z" fill="#6F6F6E"/>
<path d="M96.5641 0.0604248V48.4236C96.515 75.0194 74.8804 96.6344 48.2845 96.6344C21.6887 96.6344 0.0491696 75.0194 0 48.4236V0.0604248C6.66248 0.0604248 12.0662 5.45924 12.0662 12.1266V48.4236C12.1154 68.3619 28.3413 84.5534 48.2796 84.5534C68.2179 84.5534 84.4438 68.3619 84.493 48.4236V12.1365H72.4268V48.281C72.4022 61.6306 61.5357 72.4872 48.1862 72.4872C34.8367 72.4872 24.1226 61.7879 23.9456 48.5711C23.9013 45.3456 26.3106 42.4594 29.5313 42.2283C33.0665 41.9726 36.0118 44.7605 36.0118 48.2466C36.0118 54.9632 41.4696 60.421 48.1862 60.421C54.9028 60.421 60.3262 54.9878 60.3458 48.281V12.1266C60.3507 5.45924 65.7496 0.0604248 72.412 0.0604248H96.5592H96.5641Z" fill="#E7B100"/>
<path d="M29.6393 18.1995C34.6604 18.1995 38.7308 14.1291 38.7308 9.10806C38.7308 4.08698 34.6604 0.0166016 29.6393 0.0166016C24.6182 0.0166016 20.5479 4.08698 20.5479 9.10806C20.5479 14.1291 24.6182 18.1995 29.6393 18.1995Z" fill="#002E50"/>
</svg>
