<?xml version="1.0" encoding="UTF-8"?>
<svg id="Camada_1" data-name="Camada 1" xmlns="http://www.w3.org/2000/svg" viewBox="0 0 16 16">
  <defs>
    <style>
      .cls-1 {
        fill: #002b49;
      }

      .cls-1, .cls-2 {
        stroke-width: 0px;
      }

      .cls-2 {
        fill: #f7be00;
      }
    </style>
  </defs>
  <path class="cls-2" d="M.758330125646353.761563157519049c.99993111972708,0,1.810195986941835.810625711024841,1.810195986941835,1.810647592137684v5.431545870740592c0,3.005153252401215,2.453887294702326,5.448648896956001,5.463009527806207,5.431203088568509,2.997395474912992-.017084985049223,5.39991956875474-2.494046994203018,5.39991956875474-5.491099762668455V2.572210749656733h-1.810106311402706v5.459906585101635h-.000956181819674c-.01497416814982,1.983644341515173-1.633230715616264,3.592212823234149-3.620302828641798,3.592212823234149-1.987269902830121,0-3.605418866325635-1.608568481718976-3.620302828636341-3.592212823234149h.009327905059763c-.000523815838278-.009327283286439-.002021232648985-.018672607738154-.002021232648985-.028360714361042,0-.490846027772932.398168543360953-.888671799023541.888761982401775-.888671799023541.490665603710113,0,.88865373540466.397825771250609.88865373540466.888671799023541,0,.009688106622889-.000956181819674.019033431074604-.000956181819674.028360714361042h.026773090999086c.014974168147091.978354439668692.806043234269964,1.768882290769398,1.784307443393118,1.782268836608637,1.00934913889796.013404587005425,1.836085591076881-.836695197192967,1.836085591076881-1.845521167748302V2.572210749656733c0-1.000021881112843.810175440824423-1.810647592137684,1.810629505231191-1.810647592137684h3.620753857798263v7.270554177239319c-.007487084071727,1.821562498109415-.690651933712616,3.485607568041814-1.810647546395558,4.755904170440772-1.321983695122981,1.499130763322682-3.252244992069791,2.448583253624747-5.400369883905114,2.457567754738193-4.000232466741181.016922614548093-7.273188717880657-3.309074749953652-7.273188717880657-7.309126192068106V.761563157519049h.000433518282989Z"/>
  <path class="cls-1" d="M5.203961665190945,3.481305149607579h-.001407210981597c-.706852901173988-.000342782172083-1.287724337090367-.539286560889195-1.355631287577125-1.228874083204573-.004239674110977-.044218900064152-.006620499939345-.089141405638657-.006620499939345-.134605146218746,0-.045102917243639.002380825828368-.090386246156413.006620499939345-.13442473455143.058128638277594-.587745135175282.488717157731116-1.065727810952012,1.052864432356728-1.194343289761491.097169722453145-.022208676450646.199608105461266-.034711205109488.304174066201995-.034711205109488.752569878543,0,1.362865795321341.610477005467146,1.362865795321341,1.36347922942241,0,.753002223954354-.610295916778341,1.363479229423319-1.362865795321341,1.363479229423319Z"/>
</svg>